<svg viewBox="504.9709 254.0301 512.0584 243.9467" width="5000" height="2382.02029299783" xmlns="http://www.w3.org/2000/svg" xmlns:xlink="http://www.w3.org/1999/xlink" preserveAspectRatio="none"><defs></defs><style>.a6izo4zJpcolor {fill:#000000;fill-opacity:1;}.a6izo4zJpstrokeColor-str {stroke:#3F3F3F;stroke-opacity:1;}.aD6z1nYkhcolor {fill:#000000;fill-opacity:1;}.aD6z1nYkhstrokeColor-str {stroke:#3F3F3F;stroke-opacity:1;}</style><g opacity="1" transform="rotate(0 698.6739 254.0301)">
<svg width="124.6524" height="124.6525" x="698.6739" y="254.0301" version="1.1" preserveAspectRatio="none" viewBox="20 19.5 160 160">
  <g transform="matrix(1 0 0 1 0 0)"><g><path d="M180 114.7l-80 40.7-80-40.7v-8.8l80 40.7 80-40.7v8.8z" data-color="1" style="fill:#000000;fill-opacity:1;"></path><path d="M139.6 70.8L180 90.6v-8.5l-40.4-19.8" data-color="1" style="fill:#000000;fill-opacity:1;"></path><path d="M60.4 62.3L20 82.1v8.5l40.3-19.8" data-color="1" style="fill:#000000;fill-opacity:1;"></path><path d="M180 90.6l-80 40.7-80-40.7v-8.8l80 40.7 80-40.7v8.8z" data-color="1" style="fill:#000000;fill-opacity:1;"></path><path d="M180 138.8l-80 40.7-80-40.7V130l80 40.7 80-40.7v8.8z" data-color="1" style="fill:#000000;fill-opacity:1;"></path><path d="M139.6 62.3L100 42.9 60.4 62.3l-.1 8.6L100 51.4l39.6 19.4v-8.5z" data-color="2" style="fill:#3F3F3F;fill-opacity:1;"></path><path d="M180 90.6l-80 40.7-80-40.7v-8.8l80 40.7 80-40.7v8.8z" data-color="1" style="fill:#000000;fill-opacity:1;"></path><path d="M139.6 85.7L100 66.2 60.4 85.7l-.1 8.6L100 74.8l39.6 19.4v-8.5z" data-color="2" style="fill:#3F3F3F;fill-opacity:1;"></path><path d="M139.6 38.9L100 19.5 60.4 38.9l-.1 8.6L100 28l39.6 19.4v-8.5z" data-color="2" style="fill:#3F3F3F;fill-opacity:1;"></path></g></g>
</svg>
</g><g opacity="1" transform="rotate(0 504.9709 482.8516)">
<svg width="512.0584" height="15.1252" x="504.9709" y="482.8516" version="1.1" preserveAspectRatio="none" viewBox="2.0703 -32.5977 1259.3937999999998 37.207">
  <g transform="matrix(1 0 0 1 0 0)" class="a6izo4zJpcolor"><path id="id-6izo4zJp45" d="M32.34-16.68L32.34-11.33Q32.34-9.38 31.83-7.65Q31.31-5.92 30.36-4.51Q29.41-3.11 28.08-2.05Q26.74-1.00 25.10-0.39L25.10-0.39L31.04 4.32L23.67 4.32L18.79 0.39L13.79 0.39Q11.27 0.39 9.12-0.48Q6.97-1.35 5.41-2.91Q3.85-4.47 2.96-6.62Q2.07-8.77 2.07-11.33L2.07-11.33L2.07-16.68Q2.07-19.22 2.96-21.38Q3.85-23.54 5.41-25.09Q6.97-26.64 9.12-27.52Q11.27-28.40 13.79-28.40L13.79-28.40L20.66-28.40Q23.18-28.40 25.32-27.52Q27.46-26.64 29.02-25.09Q30.59-23.54 31.46-21.38Q32.34-19.22 32.34-16.68L32.34-16.68ZM27.27-11.33L27.27-16.68Q27.27-18.18 26.79-19.40Q26.31-20.63 25.44-21.49Q24.57-22.36 23.35-22.84Q22.13-23.32 20.66-23.32L20.66-23.32L13.79-23.32Q12.30-23.32 11.08-22.84Q9.86-22.36 8.98-21.49Q8.11-20.63 7.63-19.40Q7.15-18.18 7.15-16.68L7.15-16.68L7.15-11.33Q7.15-9.82 7.63-8.60Q8.11-7.38 8.98-6.51Q9.86-5.64 11.08-5.17Q12.30-4.69 13.79-4.69L13.79-4.69L20.63-4.69Q22.11-4.69 23.33-5.17Q24.55-5.64 25.43-6.51Q26.31-7.38 26.79-8.60Q27.27-9.82 27.27-11.33L27.27-11.33Z M68.00-28.01L68.00-2.56Q68.00-2.01 67.81-1.54Q67.61-1.07 67.26-0.73Q66.91-0.39 66.44-0.20Q65.97 0 65.45 0L65.45 0L54.00 0Q52.38 0 50.72-0.35Q49.06-0.70 47.51-1.44Q45.95-2.17 44.59-3.30Q43.22-4.43 42.19-5.99Q41.17-7.54 40.58-9.54Q40.00-11.54 40.00-14.00L40.00-14.00L40.00-28.01L45.08-28.01L45.08-14.00Q45.08-11.86 45.67-10.37Q46.27-8.89 47.18-7.89Q48.10-6.89 49.20-6.33Q50.29-5.76 51.28-5.49Q52.26-5.21 53.01-5.15Q53.77-5.08 54.00-5.08L54.00-5.08L62.93-5.08L62.93-28.01L68.00-28.01Z M104.58-25.45L104.58 0L99.51 0L99.51-6.88L81.65-6.88L81.65 0L76.58 0L76.58-14.00Q76.58-17.07 77.63-19.65Q78.69-22.23 80.56-24.08Q82.44-25.94 84.99-26.97Q87.55-28.01 90.58-28.01L90.58-28.01L102.03-28.01Q102.55-28.01 103.02-27.81Q103.49-27.62 103.84-27.27Q104.19-26.91 104.39-26.45Q104.58-25.98 104.58-25.45L104.58-25.45ZM81.65-14.00L81.65-11.95L99.51-11.95L99.51-22.93L90.58-22.93Q90.35-22.93 89.59-22.86Q88.84-22.79 87.86-22.52Q86.87-22.25 85.78-21.68Q84.68-21.11 83.76-20.12Q82.85-19.12 82.25-17.63Q81.65-16.13 81.65-14.00L81.65-14.00Z M139.40-5.08L139.40 0L116.24 0Q115.69 0 115.23-0.20Q114.76-0.39 114.41-0.73Q114.07-1.07 113.88-1.54Q113.68-2.01 113.68-2.56L113.68-2.56L113.68-28.01L118.76-28.01L118.76-5.08L139.40-5.08Z M151.45-28.01L151.45 0L146.37 0L146.37-28.01L151.45-28.01Z M185.90-28.01L185.90-22.93L174.71-22.93L174.71 0L169.63 0L169.63-22.93L158.42-22.93L158.42-28.01L185.90-28.01Z M219.51-28.01L219.51-18.63Q219.51-16.89 219.07-15.53Q218.63-14.16 217.91-13.12Q217.19-12.07 216.22-11.33Q215.25-10.59 214.22-10.11Q213.18-9.63 212.12-9.41Q211.06-9.20 210.12-9.20L210.12-9.20L208.07-9.20L208.07 0L202.95 0L202.95-9.20L200.92-9.20Q199.98-9.20 198.92-9.41Q197.85-9.63 196.81-10.11Q195.76-10.59 194.81-11.33Q193.85-12.07 193.12-13.12Q192.38-14.16 191.94-15.54Q191.50-16.91 191.50-18.63L191.50-18.63L191.50-28.01L196.58-28.01L196.58-18.63Q196.58-17.64 196.90-16.85Q197.21-16.05 197.77-15.49Q198.34-14.92 199.15-14.62Q199.96-14.32 200.96-14.32L200.96-14.32L210.12-14.32Q210.84-14.43 211.60-14.62Q212.36-14.80 212.99-15.25Q213.61-15.70 214.02-16.50Q214.43-17.30 214.43-18.63L214.43-18.63L214.43-28.01L219.51-28.01Z M247.96-32.60L247.96 4.61L242.87 4.61L242.87-32.60L247.96-32.60Z M299.89-8.24L299.89-8.24Q299.89-6.74 299.51-5.54Q299.13-4.34 298.50-3.42Q297.88-2.50 297.04-1.86Q296.20-1.21 295.30-0.80Q294.40-0.39 293.47-0.20Q292.55 0 291.73 0L291.73 0L272.14 0L272.14-5.08L291.73-5.08Q293.19-5.08 294.00-5.94Q294.81-6.80 294.81-8.24L294.81-8.24Q294.81-8.95 294.60-9.53Q294.38-10.12 293.98-10.55Q293.58-10.98 293.01-11.21Q292.43-11.45 291.73-11.45L291.73-11.45L280.05-11.45Q278.82-11.45 277.39-11.88Q275.96-12.32 274.74-13.30Q273.52-14.28 272.71-15.86Q271.90-17.44 271.90-19.73L271.90-19.73Q271.90-22.01 272.71-23.58Q273.52-25.16 274.74-26.14Q275.96-27.13 277.39-27.57Q278.82-28.01 280.05-28.01L280.05-28.01L297.33-28.01L297.33-22.93L280.05-22.93Q278.60-22.93 277.79-22.05Q276.98-21.17 276.98-19.73L276.98-19.73Q276.98-18.26 277.79-17.41Q278.60-16.56 280.05-16.56L280.05-16.56L291.73-16.56L291.77-16.56Q292.59-16.54 293.50-16.34Q294.42-16.13 295.33-15.70Q296.24-15.27 297.06-14.62Q297.88-13.96 298.51-13.05Q299.15-12.13 299.52-10.94Q299.89-9.75 299.89-8.24Z M334.75-28.01L334.75-2.56Q334.75-2.01 334.56-1.54Q334.36-1.07 334.01-0.73Q333.66-0.39 333.19-0.20Q332.72 0 332.19 0L332.19 0L320.75 0Q319.13 0 317.47-0.35Q315.81-0.70 314.25-1.44Q312.70-2.17 311.33-3.30Q309.97-4.43 308.94-5.99Q307.91-7.54 307.33-9.54Q306.74-11.54 306.74-14.00L306.74-14.00L306.74-28.01L311.82-28.01L311.82-14.00Q311.82-11.86 312.42-10.37Q313.01-8.89 313.93-7.89Q314.85-6.89 315.94-6.33Q317.04-5.76 318.02-5.49Q319.01-5.21 319.76-5.15Q320.51-5.08 320.75-5.08L320.75-5.08L329.67-5.08L329.67-28.01L334.75-28.01Z M370.76-8.24L370.76-8.24Q370.76-6.74 370.38-5.54Q370.00-4.34 369.38-3.42Q368.75-2.50 367.91-1.86Q367.07-1.21 366.17-0.80Q365.27-0.39 364.35-0.20Q363.42 0 362.60 0L362.60 0L343.01 0L343.01-5.08L362.60-5.08Q364.06-5.08 364.87-5.94Q365.69-6.80 365.69-8.24L365.69-8.24Q365.69-8.95 365.47-9.53Q365.26-10.12 364.86-10.55Q364.45-10.98 363.88-11.21Q363.30-11.45 362.60-11.45L362.60-11.45L350.92-11.45Q349.69-11.45 348.26-11.88Q346.84-12.32 345.62-13.30Q344.40-14.28 343.59-15.86Q342.77-17.44 342.77-19.73L342.77-19.73Q342.77-22.01 343.59-23.58Q344.40-25.16 345.62-26.14Q346.84-27.13 348.26-27.57Q349.69-28.01 350.92-28.01L350.92-28.01L368.20-28.01L368.20-22.93L350.92-22.93Q349.47-22.93 348.66-22.05Q347.85-21.17 347.85-19.73L347.85-19.73Q347.85-18.26 348.66-17.41Q349.47-16.56 350.92-16.56L350.92-16.56L362.60-16.56L362.64-16.56Q363.46-16.54 364.38-16.34Q365.29-16.13 366.20-15.70Q367.11-15.27 367.93-14.62Q368.75-13.96 369.39-13.05Q370.02-12.13 370.39-10.94Q370.76-9.75 370.76-8.24Z M403.20-28.01L403.20-22.93L392.01-22.93L392.01 0L386.93 0L386.93-22.93L375.72-22.93L375.72-28.01L403.20-28.01Z M436.64-25.45L436.64 0L431.56 0L431.56-6.88L413.71-6.88L413.71 0L408.63 0L408.63-14.00Q408.63-17.07 409.68-19.65Q410.74-22.23 412.61-24.08Q414.49-25.94 417.05-26.97Q419.60-28.01 422.63-28.01L422.63-28.01L434.08-28.01Q434.60-28.01 435.07-27.81Q435.54-27.62 435.89-27.27Q436.25-26.91 436.44-26.45Q436.64-25.98 436.64-25.45L436.64-25.45ZM413.71-14.00L413.71-11.95L431.56-11.95L431.56-22.93L422.63-22.93Q422.40-22.93 421.65-22.86Q420.89-22.79 419.91-22.52Q418.92-22.25 417.83-21.68Q416.73-21.11 415.82-20.12Q414.90-19.12 414.30-17.63Q413.71-16.13 413.71-14.00L413.71-14.00Z M450.85-28.01L450.85 0L445.77 0L445.77-28.01L450.85-28.01Z M487.98-28.01L487.98-2.17Q487.98-1.62 487.77-1.15Q487.57-0.68 487.23-0.34Q486.88 0 486.41 0.20Q485.95 0.39 485.42 0.39L485.42 0.39Q484.95 0.39 484.47 0.21Q483.99 0.04 483.62-0.35L483.62-0.35L465.07-19.73L465.07 0L459.99 0L459.99-25.84Q459.99-26.62 460.43-27.26Q460.87-27.89 461.55-28.20L461.55-28.20Q462.27-28.50 463.04-28.35Q463.80-28.20 464.34-27.64L464.34-27.64L482.90-8.28L482.90-28.01L487.98-28.01Z M524.56-25.45L524.56 0L519.48 0L519.48-6.88L501.63-6.88L501.63 0L496.55 0L496.55-14.00Q496.55-17.07 497.60-19.65Q498.66-22.23 500.53-24.08Q502.41-25.94 504.97-26.97Q507.52-28.01 510.55-28.01L510.55-28.01L522.00-28.01Q522.52-28.01 522.99-27.81Q523.46-27.62 523.81-27.27Q524.17-26.91 524.36-26.45Q524.56-25.98 524.56-25.45L524.56-25.45ZM501.63-14.00L501.63-11.95L519.48-11.95L519.48-22.93L510.55-22.93Q510.32-22.93 509.57-22.86Q508.81-22.79 507.83-22.52Q506.84-22.25 505.75-21.68Q504.65-21.11 503.74-20.12Q502.82-19.12 502.22-17.63Q501.63-16.13 501.63-14.00L501.63-14.00Z M561.60-7.13L561.60-6.15Q561.60-5.21 561.28-4.14Q560.96-3.07 560.23-2.15Q559.49-1.23 558.32-0.62Q557.15 0 555.45 0L555.45 0L536.17 0Q535.63 0 535.16-0.20Q534.69-0.39 534.35-0.73Q534.01-1.07 533.81-1.54Q533.62-2.01 533.62-2.56L533.62-2.56L533.62-25.45Q533.62-25.98 533.81-26.45Q534.01-26.91 534.35-27.27Q534.69-27.62 535.16-27.81Q535.63-28.01 536.17-28.01L536.17-28.01L553.17-28.01Q554.10-28.01 555.18-27.68Q556.25-27.34 557.18-26.61Q558.11-25.88 558.72-24.71Q559.34-23.54 559.34-21.84L559.34-21.84L559.34-20.88Q559.34-19.53 558.89-17.98Q558.44-16.43 557.44-15.04L557.44-15.04Q558.30-14.51 559.06-13.77Q559.81-13.03 560.37-12.05Q560.94-11.07 561.27-9.84Q561.60-8.61 561.60-7.13L561.60-7.13ZM556.53-6.19L556.53-7.13Q556.53-8.13 556.21-8.92Q555.90-9.71 555.33-10.27Q554.77-10.84 553.97-11.14Q553.17-11.45 552.17-11.45L552.17-11.45L540.72-11.45L540.72-16.56L549.89-16.56Q550.88-16.56 551.68-16.87Q552.48-17.17 553.05-17.73Q553.62-18.30 553.92-19.09Q554.22-19.88 554.22-20.88L554.22-20.88L554.22-21.84Q554.22-22.93 553.17-22.93L553.17-22.93L538.69-22.93L538.69-5.08L555.45-5.08Q555.59-5.08 555.78-5.10Q555.98-5.12 556.14-5.21Q556.29-5.31 556.41-5.55Q556.53-5.78 556.53-6.19L556.53-6.19Z M574.34-28.01L574.34 0L569.26 0L569.26-28.01L574.34-28.01Z M609.20-5.08L609.20 0L586.03 0Q585.48 0 585.02-0.20Q584.55-0.39 584.21-0.73Q583.86-1.07 583.67-1.54Q583.47-2.01 583.47-2.56L583.47-2.56L583.47-28.01L588.55-28.01L588.55-5.08L609.20-5.08Z M621.24-28.01L621.24 0L616.16 0L616.16-28.01L621.24-28.01Z M655.69-28.01L655.69-22.93L644.50-22.93L644.50 0L639.42 0L639.42-22.93L628.21-22.93L628.21-28.01L655.69-28.01Z M689.30-28.01L689.30-18.63Q689.30-16.89 688.86-15.53Q688.42-14.16 687.70-13.12Q686.98-12.07 686.01-11.33Q685.05-10.59 684.01-10.11Q682.98-9.63 681.91-9.41Q680.85-9.20 679.91-9.20L679.91-9.20L677.86-9.20L677.86 0L672.74 0L672.74-9.20L670.71-9.20Q669.77-9.20 668.71-9.41Q667.64-9.63 666.60-10.11Q665.55-10.59 664.60-11.33Q663.64-12.07 662.91-13.12Q662.17-14.16 661.73-15.54Q661.30-16.91 661.30-18.63L661.30-18.63L661.30-28.01L666.37-28.01L666.37-18.63Q666.37-17.64 666.69-16.85Q667.00-16.05 667.56-15.49Q668.13-14.92 668.94-14.62Q669.75-14.32 670.75-14.32L670.75-14.32L679.91-14.32Q680.63-14.43 681.39-14.62Q682.15-14.80 682.78-15.25Q683.40-15.70 683.81-16.50Q684.23-17.30 684.23-18.63L684.23-18.63L684.23-28.01L689.30-28.01Z M717.75-32.60L717.75 4.61L712.66 4.61L712.66-32.60L717.75-32.60Z M767.85-5.08L767.85 0L749.53 0Q748.82 0 748.01-0.17Q747.20-0.33 746.41-0.68Q745.62-1.04 744.90-1.59Q744.17-2.15 743.62-2.94Q743.06-3.73 742.73-4.78Q742.40-5.82 742.40-7.13L742.40-7.13L742.40-20.88Q742.40-21.58 742.56-22.39Q742.73-23.20 743.08-23.99Q743.43-24.79 744.00-25.51Q744.56-26.23 745.36-26.79Q746.15-27.34 747.18-27.68Q748.22-28.01 749.53-28.01L749.53-28.01L767.85-28.01L767.85-22.93L749.53-22.93Q748.53-22.93 748.00-22.40Q747.47-21.88 747.47-20.84L747.47-20.84L747.47-7.13Q747.47-6.15 748.01-5.62Q748.55-5.08 749.53-5.08L749.53-5.08L767.85-5.08Z M804.83-16.68L804.83-11.33Q804.83-8.77 803.96-6.62Q803.08-4.47 801.51-2.91Q799.95-1.35 797.81-0.48Q795.67 0.39 793.15 0.39L793.15 0.39L786.28 0.39Q783.76 0.39 781.61-0.48Q779.46-1.35 777.90-2.91Q776.34-4.47 775.45-6.62Q774.56-8.77 774.56-11.33L774.56-11.33L774.56-16.68Q774.56-19.22 775.45-21.38Q776.34-23.54 777.90-25.09Q779.46-26.64 781.61-27.52Q783.76-28.40 786.28-28.40L786.28-28.40L793.15-28.40Q795.67-28.40 797.81-27.52Q799.95-26.64 801.51-25.09Q803.08-23.54 803.96-21.38Q804.83-19.22 804.83-16.68L804.83-16.68ZM799.76-11.33L799.76-16.68Q799.76-18.18 799.28-19.40Q798.80-20.63 797.93-21.49Q797.06-22.36 795.84-22.84Q794.62-23.32 793.15-23.32L793.15-23.32L786.28-23.32Q784.80-23.32 783.57-22.84Q782.35-22.36 781.48-21.49Q780.60-20.63 780.12-19.40Q779.64-18.18 779.64-16.68L779.64-16.68L779.64-11.33Q779.64-9.82 780.12-8.60Q780.60-7.38 781.48-6.51Q782.35-5.64 783.57-5.17Q784.80-4.69 786.28-4.69L786.28-4.69L793.12-4.69Q794.60-4.69 795.82-5.17Q797.04-5.64 797.92-6.51Q798.80-7.38 799.28-8.60Q799.76-9.82 799.76-11.33L799.76-11.33Z M841.04-28.01L841.04-2.17Q841.04-1.62 840.84-1.15Q840.63-0.68 840.29-0.34Q839.95 0 839.48 0.20Q839.01 0.39 838.48 0.39L838.48 0.39Q838.01 0.39 837.54 0.21Q837.06 0.04 836.69-0.35L836.69-0.35L818.13-19.73L818.13 0L813.05 0L813.05-25.84Q813.05-26.62 813.49-27.26Q813.93-27.89 814.62-28.20L814.62-28.20Q815.34-28.50 816.10-28.35Q816.86-28.20 817.41-27.64L817.41-27.64L835.96-8.28L835.96-28.01L841.04-28.01Z M875.45-28.01L875.45-22.93L864.26-22.93L864.26 0L859.18 0L859.18-22.93L847.97-22.93L847.97-28.01L875.45-28.01Z M887.50-28.01L887.50 0L882.42 0L882.42-28.01L887.50-28.01Z M924.63-28.01L924.63-2.17Q924.63-1.62 924.42-1.15Q924.22-0.68 923.87-0.34Q923.53 0 923.06 0.20Q922.60 0.39 922.07 0.39L922.07 0.39Q921.60 0.39 921.12 0.21Q920.64 0.04 920.27-0.35L920.27-0.35L901.72-19.73L901.72 0L896.64 0L896.64-25.84Q896.64-26.62 897.08-27.26Q897.52-27.89 898.20-28.20L898.20-28.20Q898.92-28.50 899.69-28.35Q900.45-28.20 900.99-27.64L900.99-27.64L919.55-8.28L919.55-28.01L924.63-28.01Z M961.17-28.01L961.17-2.56Q961.17-2.01 960.97-1.54Q960.78-1.07 960.42-0.73Q960.07-0.39 959.60-0.20Q959.14 0 958.61 0L958.61 0L947.16 0Q945.54 0 943.88-0.35Q942.22-0.70 940.67-1.44Q939.12-2.17 937.75-3.30Q936.38-4.43 935.36-5.99Q934.33-7.54 933.74-9.54Q933.16-11.54 933.16-14.00L933.16-14.00L933.16-28.01L938.24-28.01L938.24-14.00Q938.24-11.86 938.83-10.37Q939.43-8.89 940.35-7.89Q941.26-6.89 942.36-6.33Q943.45-5.76 944.44-5.49Q945.42-5.21 946.18-5.15Q946.93-5.08 947.16-5.08L947.16-5.08L956.09-5.08L956.09-28.01L961.17-28.01Z M975.38-28.01L975.38 0L970.30 0L970.30-28.01L975.38-28.01Z M1009.83-28.01L1009.83-22.93L998.64-22.93L998.64 0L993.56 0L993.56-22.93L982.35-22.93L982.35-28.01L1009.83-28.01Z M1043.44-28.01L1043.44-18.63Q1043.44-16.89 1043.00-15.53Q1042.56-14.16 1041.84-13.12Q1041.12-12.07 1040.15-11.33Q1039.18-10.59 1038.15-10.11Q1037.11-9.63 1036.05-9.41Q1034.99-9.20 1034.05-9.20L1034.05-9.20L1032.00-9.20L1032.00 0L1026.88 0L1026.88-9.20L1024.85-9.20Q1023.91-9.20 1022.85-9.41Q1021.78-9.63 1020.74-10.11Q1019.69-10.59 1018.74-11.33Q1017.78-12.07 1017.05-13.12Q1016.31-14.16 1015.87-15.54Q1015.43-16.91 1015.43-18.63L1015.43-18.63L1015.43-28.01L1020.51-28.01L1020.51-18.63Q1020.51-17.64 1020.83-16.85Q1021.14-16.05 1021.70-15.49Q1022.27-14.92 1023.08-14.62Q1023.89-14.32 1024.89-14.32L1024.89-14.32L1034.05-14.32Q1034.77-14.43 1035.53-14.62Q1036.29-14.80 1036.92-15.25Q1037.54-15.70 1037.95-16.50Q1038.36-17.30 1038.36-18.63L1038.36-18.63L1038.36-28.01L1043.44-28.01Z M1071.89-32.60L1071.89 4.61L1066.80 4.61L1066.80-32.60L1071.89-32.60Z M1123.82-8.24L1123.82-8.24Q1123.82-6.74 1123.44-5.54Q1123.06-4.34 1122.43-3.42Q1121.81-2.50 1120.97-1.86Q1120.13-1.21 1119.23-0.80Q1118.33-0.39 1117.40-0.20Q1116.48 0 1115.66 0L1115.66 0L1096.07 0L1096.07-5.08L1115.66-5.08Q1117.12-5.08 1117.93-5.94Q1118.74-6.80 1118.74-8.24L1118.74-8.24Q1118.74-8.95 1118.53-9.53Q1118.31-10.12 1117.91-10.55Q1117.51-10.98 1116.94-11.21Q1116.36-11.45 1115.66-11.45L1115.66-11.45L1103.98-11.45Q1102.75-11.45 1101.32-11.88Q1099.89-12.32 1098.67-13.30Q1097.45-14.28 1096.64-15.86Q1095.83-17.44 1095.83-19.73L1095.83-19.73Q1095.83-22.01 1096.64-23.58Q1097.45-25.16 1098.67-26.14Q1099.89-27.13 1101.32-27.57Q1102.75-28.01 1103.98-28.01L1103.98-28.01L1121.26-28.01L1121.26-22.93L1103.98-22.93Q1102.53-22.93 1101.72-22.05Q1100.91-21.17 1100.91-19.73L1100.91-19.73Q1100.91-18.26 1101.72-17.41Q1102.53-16.56 1103.98-16.56L1103.98-16.56L1115.66-16.56L1115.70-16.56Q1116.52-16.54 1117.43-16.34Q1118.35-16.13 1119.26-15.70Q1120.17-15.27 1120.99-14.62Q1121.81-13.96 1122.44-13.05Q1123.08-12.13 1123.45-10.94Q1123.82-9.75 1123.82-8.24Z M1159.15-18.59L1159.15-16.29Q1159.15-14.55 1158.72-13.18Q1158.29-11.82 1157.56-10.77Q1156.83-9.73 1155.87-8.98Q1154.91-8.24 1153.87-7.77Q1152.82-7.30 1151.76-7.09Q1150.69-6.88 1149.75-6.88L1149.75-6.88L1138.27-6.88L1138.27-11.95L1149.75-11.95Q1150.73-12.03 1151.52-12.35Q1152.31-12.68 1152.88-13.22Q1153.45-13.77 1153.76-14.54Q1154.07-15.31 1154.07-16.29L1154.07-16.29L1154.07-18.59Q1153.97-19.55 1153.66-20.35Q1153.35-21.15 1152.81-21.72Q1152.27-22.29 1151.51-22.61Q1150.75-22.93 1149.75-22.93L1149.75-22.93L1138.31-22.93Q1137.29-22.93 1136.77-22.40Q1136.24-21.88 1136.24-20.88L1136.24-20.88L1136.24 0L1131.16 0L1131.16-20.88Q1131.16-22.83 1131.87-24.20Q1132.59-25.57 1133.65-26.41Q1134.72-27.25 1135.97-27.63Q1137.22-28.01 1138.27-28.01L1138.27-28.01L1149.75-28.01Q1151.47-28.01 1152.84-27.57Q1154.21-27.13 1155.25-26.40Q1156.30-25.66 1157.03-24.71Q1157.76-23.75 1158.24-22.71Q1158.72-21.66 1158.93-20.60Q1159.15-19.53 1159.15-18.59L1159.15-18.59Z M1189.71-16.56L1189.71-11.45L1173.68-11.45L1173.68-16.56L1189.71-16.56ZM1192.00-5.08L1192.00 0L1173.68 0Q1172.62 0 1171.37-0.37Q1170.12-0.74 1169.06-1.59Q1167.99-2.44 1167.28-3.80Q1166.57-5.16 1166.57-7.13L1166.57-7.13L1166.57-25.45Q1166.57-25.98 1166.76-26.45Q1166.96-26.91 1167.30-27.27Q1167.64-27.62 1168.11-27.81Q1168.58-28.01 1169.13-28.01L1169.13-28.01L1192.00-28.01L1192.00-22.93L1171.65-22.93L1171.65-7.13Q1171.65-6.13 1172.17-5.61Q1172.70-5.08 1173.72-5.08L1173.72-5.08L1192.00-5.08Z M1223.13-16.56L1223.13-11.45L1207.09-11.45L1207.09-16.56L1223.13-16.56ZM1225.41-5.08L1225.41 0L1207.09 0Q1206.04 0 1204.79-0.37Q1203.54-0.74 1202.47-1.59Q1201.41-2.44 1200.70-3.80Q1199.98-5.16 1199.98-7.13L1199.98-7.13L1199.98-25.45Q1199.98-25.98 1200.18-26.45Q1200.37-26.91 1200.72-27.27Q1201.06-27.62 1201.53-27.81Q1201.99-28.01 1202.54-28.01L1202.54-28.01L1225.41-28.01L1225.41-22.93L1205.06-22.93L1205.06-7.13Q1205.06-6.13 1205.59-5.61Q1206.12-5.08 1207.13-5.08L1207.13-5.08L1225.41-5.08Z M1261.46-16.29L1261.46-11.72Q1261.46-9.16 1260.58-7.01Q1259.69-4.86 1258.12-3.31Q1256.56-1.76 1254.41-0.88Q1252.26 0 1249.75 0L1249.75 0L1236.03 0Q1235.49 0 1235.02-0.20Q1234.55-0.39 1234.21-0.73Q1233.87-1.07 1233.67-1.54Q1233.48-2.01 1233.48-2.56L1233.48-2.56L1233.48-25.45Q1233.48-25.98 1233.67-26.45Q1233.87-26.91 1234.21-27.27Q1234.55-27.62 1235.02-27.81Q1235.49-28.01 1236.03-28.01L1236.03-28.01L1249.75-28.01Q1252.26-28.01 1254.41-27.13Q1256.56-26.25 1258.12-24.70Q1259.69-23.14 1260.58-20.99Q1261.46-18.83 1261.46-16.29L1261.46-16.29ZM1256.39-11.72L1256.39-16.29Q1256.39-17.77 1255.91-19.00Q1255.43-20.23 1254.55-21.10Q1253.67-21.97 1252.45-22.45Q1251.23-22.93 1249.75-22.93L1249.75-22.93L1238.55-22.93L1238.55-5.08L1249.75-5.08Q1251.23-5.08 1252.45-5.56Q1253.67-6.04 1254.55-6.90Q1255.43-7.77 1255.91-8.99Q1256.39-10.21 1256.39-11.72L1256.39-11.72Z"/></g>
</svg>
</g><g opacity="1" transform="rotate(0 555.1664 408.6126)">
<svg width="411.6673" height="39.1129" x="555.1664" y="408.6126" version="1.1" preserveAspectRatio="none" viewBox="2.9492 -28.0078 294.7828 28.0078">
  <g transform="matrix(1 0 0 1 0 0)" class="aD6z1nYkhcolor"><path id="id-D6z1nYkh9" d="M28.67-5.08L28.67 0L5.51 0Q4.96 0 4.49-0.20Q4.02-0.39 3.68-0.73Q3.34-1.07 3.14-1.54Q2.95-2.01 2.95-2.56L2.95-2.56L2.95-28.01L8.03-28.01L8.03-5.08L28.67-5.08Z M62.68-25.45L62.68 0L57.60 0L57.60-6.88L39.75-6.88L39.75 0L34.67 0L34.67-14.00Q34.67-17.07 35.73-19.65Q36.78-22.23 38.66-24.08Q40.53-25.94 43.09-26.97Q45.65-28.01 48.68-28.01L48.68-28.01L60.12-28.01Q60.65-28.01 61.12-27.81Q61.59-27.62 61.94-27.27Q62.29-26.91 62.49-26.45Q62.68-25.98 62.68-25.45L62.68-25.45ZM39.75-14.00L39.75-11.95L57.60-11.95L57.60-22.93L48.68-22.93Q48.44-22.93 47.69-22.86Q46.94-22.79 45.95-22.52Q44.97-22.25 43.87-21.68Q42.78-21.11 41.86-20.12Q40.94-19.12 40.35-17.63Q39.75-16.13 39.75-14.00L39.75-14.00Z M98.06-28.01L98.06-18.63Q98.06-16.89 97.62-15.53Q97.18-14.16 96.46-13.12Q95.74-12.07 94.77-11.33Q93.80-10.59 92.77-10.11Q91.73-9.63 90.67-9.41Q89.60-9.20 88.67-9.20L88.67-9.20L86.62-9.20L86.62 0L81.50 0L81.50-9.20L79.47-9.20Q78.53-9.20 77.47-9.41Q76.40-9.63 75.36-10.11Q74.31-10.59 73.35-11.33Q72.40-12.07 71.66-13.12Q70.93-14.16 70.49-15.54Q70.05-16.91 70.05-18.63L70.05-18.63L70.05-28.01L75.13-28.01L75.13-18.63Q75.13-17.64 75.44-16.85Q75.76-16.05 76.32-15.49Q76.89-14.92 77.70-14.62Q78.51-14.32 79.51-14.32L79.51-14.32L88.67-14.32Q89.39-14.43 90.15-14.62Q90.91-14.80 91.54-15.25Q92.16-15.70 92.57-16.50Q92.98-17.30 92.98-18.63L92.98-18.63L92.98-28.01L98.06-28.01Z M128.46-16.56L128.46-11.45L112.42-11.45L112.42-16.56L128.46-16.56ZM130.74-5.08L130.74 0L112.42 0Q111.37 0 110.12-0.37Q108.87-0.74 107.80-1.59Q106.74-2.44 106.03-3.80Q105.31-5.16 105.31-7.13L105.31-7.13L105.31-25.45Q105.31-25.98 105.51-26.45Q105.70-26.91 106.05-27.27Q106.39-27.62 106.86-27.81Q107.33-28.01 107.87-28.01L107.87-28.01L130.74-28.01L130.74-22.93L110.39-22.93L110.39-7.13Q110.39-6.13 110.92-5.61Q111.45-5.08 112.46-5.08L112.46-5.08L130.74-5.08Z M166.43-21.84L166.43-18.59Q166.43-16.86 166.00-15.49Q165.57-14.12 164.84-13.08Q164.11-12.03 163.15-11.29Q162.20-10.55 161.15-10.07Q160.11-9.59 159.04-9.38Q157.98-9.16 157.04-9.16L157.04-9.16L167.65 0L159.79 0L149.21-9.16L145.56-9.16L145.56-14.24L157.04-14.24Q158.00-14.32 158.79-14.64Q159.58-14.96 160.16-15.51Q160.73-16.05 161.04-16.83Q161.36-17.60 161.36-18.59L161.36-18.59L161.36-21.80Q161.36-22.23 161.25-22.45Q161.14-22.68 160.98-22.78Q160.81-22.89 160.62-22.91Q160.44-22.93 160.28-22.93L160.28-22.93L143.52-22.93L143.52 0L138.45 0L138.45-25.45Q138.45-25.98 138.64-26.45Q138.84-26.91 139.18-27.27Q139.52-27.62 139.99-27.81Q140.46-28.01 141.00-28.01L141.00-28.01L160.28-28.01Q161.98-28.01 163.15-27.39Q164.32-26.78 165.06-25.85Q165.79-24.92 166.11-23.85Q166.43-22.77 166.43-21.84L166.43-21.84Z M201.25-8.24L201.25-8.24Q201.25-6.74 200.87-5.54Q200.48-4.34 199.86-3.42Q199.23-2.50 198.39-1.86Q197.55-1.21 196.66-0.80Q195.76-0.39 194.83-0.20Q193.90 0 193.08 0L193.08 0L173.49 0L173.49-5.08L193.08-5.08Q194.55-5.08 195.36-5.94Q196.17-6.80 196.17-8.24L196.17-8.24Q196.17-8.95 195.95-9.53Q195.74-10.12 195.34-10.55Q194.94-10.98 194.36-11.21Q193.79-11.45 193.08-11.45L193.08-11.45L181.40-11.45Q180.17-11.45 178.75-11.88Q177.32-12.32 176.10-13.30Q174.88-14.28 174.07-15.86Q173.26-17.44 173.26-19.73L173.26-19.73Q173.26-22.01 174.07-23.58Q174.88-25.16 176.10-26.14Q177.32-27.13 178.75-27.57Q180.17-28.01 181.40-28.01L181.40-28.01L198.69-28.01L198.69-22.93L181.40-22.93Q179.96-22.93 179.15-22.05Q178.34-21.17 178.34-19.73L178.34-19.73Q178.34-18.26 179.15-17.41Q179.96-16.56 181.40-16.56L181.40-16.56L193.08-16.56L193.12-16.56Q193.94-16.54 194.86-16.34Q195.78-16.13 196.69-15.70Q197.59-15.27 198.41-14.62Q199.23-13.96 199.87-13.05Q200.50-12.13 200.88-10.94Q201.25-9.75 201.25-8.24Z M233.28-28.01L233.28-22.93L222.09-22.93L222.09 0L217.01 0L217.01-22.93L205.80-22.93L205.80-28.01L233.28-28.01Z M262.84-16.56L262.84-11.45L246.81-11.45L246.81-16.56L262.84-16.56ZM265.13-5.08L265.13 0L246.81 0Q245.75 0 244.50-0.37Q243.25-0.74 242.19-1.59Q241.12-2.44 240.41-3.80Q239.70-5.16 239.70-7.13L239.70-7.13L239.70-25.45Q239.70-25.98 239.89-26.45Q240.09-26.91 240.43-27.27Q240.77-27.62 241.24-27.81Q241.71-28.01 242.26-28.01L242.26-28.01L265.13-28.01L265.13-22.93L244.78-22.93L244.78-7.13Q244.78-6.13 245.30-5.61Q245.83-5.08 246.85-5.08L246.85-5.08L265.13-5.08Z M297.73-5.08L297.73 0L279.41 0Q278.71 0 277.90-0.17Q277.09-0.33 276.30-0.68Q275.51-1.04 274.78-1.59Q274.06-2.15 273.50-2.94Q272.95-3.73 272.61-4.78Q272.28-5.82 272.28-7.13L272.28-7.13L272.28-20.88Q272.28-21.58 272.45-22.39Q272.61-23.20 272.97-23.99Q273.32-24.79 273.88-25.51Q274.45-26.23 275.24-26.79Q276.03-27.34 277.07-27.68Q278.10-28.01 279.41-28.01L279.41-28.01L297.73-28.01L297.73-22.93L279.41-22.93Q278.42-22.93 277.89-22.40Q277.36-21.88 277.36-20.84L277.36-20.84L277.36-7.13Q277.36-6.15 277.90-5.62Q278.44-5.08 279.41-5.08L279.41-5.08L297.73-5.08Z"/></g>
</svg>
</g></svg>