<svg width="162" height="50" viewBox="0 0 162 50" fill="none" xmlns="http://www.w3.org/2000/svg">
<path d="M55.3545 16.8878H60.2977V31.6H69.8754L71.8347 36.1213H55.3545V16.8878Z" fill="white"/>
<path d="M68.2305 21.6433H72.8256L76.6881 31.3325L79.9752 21.6433H84.5704L78.524 37.2726C77.9148 38.8614 77.5303 40.5395 76.4804 41.4092C75.6916 42.067 74.7204 42.7221 73.199 42.7221H55.3545V38.5632H71.9807C72.5674 38.5464 72.9884 38.329 73.3337 38.067C73.7576 37.7437 74.4144 36.8991 74.4874 36.1241L68.2305 21.6433Z" fill="white"/>
<path d="M101.71 27.2265V35.9206H97.0897V34.5074V29.267C97.0897 28.0349 97.0616 27.1847 97.0055 26.7164C96.9494 26.2481 96.8539 25.9053 96.7164 25.6851C96.5367 25.3868 96.2925 25.1555 95.9837 24.9882C95.675 24.8238 95.3269 24.7401 94.9311 24.7401C93.9711 24.7401 93.2188 25.1081 92.6714 25.844C92.1212 26.5799 91.8489 27.5973 91.8489 28.8962V35.9206H87.2566V21.6433H91.8517V23.7339C92.5451 22.9004 93.2805 22.2872 94.0581 21.8914C94.8385 21.4955 95.6974 21.3004 96.6406 21.3004C98.2996 21.3004 99.5599 21.8049 100.419 22.8168C101.281 23.8286 101.71 25.2976 101.71 27.2265Z" fill="white"/>
<path d="M109.605 28.6175L104.417 21.6433H109.282L112.224 25.8775L115.202 21.6433H120.067L114.879 28.5924L120.322 35.9207H115.457L112.224 31.4078L109.026 35.9207H104.162L109.605 28.6175Z" fill="white"/>
<path d="M124.946 17.5902V21.6432H129.811V22.6383H124.946V31.2181C124.946 32.3052 125.087 33.0662 125.37 33.501C125.951 34.4515 126.799 34.9282 127.91 34.9282H129.811V35.9233H127.975C126.804 35.9233 125.808 35.5832 124.985 34.9031C124.163 34.223 123.753 32.9937 123.753 31.2181V22.6383H122.032V21.6432H123.753V17.5902H124.946Z" fill="white"/>
<path d="M144.02 27.9402C144.02 25.9333 143.568 24.4726 142.659 23.5556C141.898 22.7388 140.862 22.3319 139.551 22.3319C138.123 22.3319 136.927 22.7556 135.958 23.6057C135.068 24.3946 134.535 25.8385 134.353 27.9402H144.02ZM145.216 28.1967V28.9354H134.302C134.302 31.2294 134.751 32.835 135.65 33.7549C136.643 34.7751 138.12 35.2852 140.079 35.2852C140.593 35.2852 141.272 35.1737 142.12 34.9535C142.976 34.7333 143.824 34.3988 144.66 33.9584V35.1932C143.812 35.55 142.945 35.8232 142.055 36.0099C141.163 36.1967 140.458 36.2915 139.936 36.2915C137.721 36.2915 136.051 35.6977 134.931 34.5047C133.715 33.2392 133.109 31.3827 133.109 28.9354C133.109 26.3932 133.665 24.4977 134.777 23.2489C135.913 21.95 137.497 21.2977 139.526 21.2977C141.41 21.2977 142.83 21.9138 143.787 23.1458C144.742 24.4392 145.216 26.1228 145.216 28.1967Z" fill="white"/>
<path d="M157.989 22.6495C157.801 22.5548 157.543 22.4767 157.22 22.407C156.928 22.3568 156.56 22.3318 156.117 22.3318C154.66 22.3318 153.456 22.8669 152.496 23.9373C151.74 24.8042 151.364 26.2927 151.364 28.4001V35.9206H150.208V21.6432H151.364V24.3192C151.749 23.5554 152.291 22.9088 152.984 22.3819C153.941 21.66 155.072 21.2976 156.372 21.2976C156.706 21.2976 156.995 21.3088 157.245 21.3338C157.501 21.3338 157.75 21.3645 157.989 21.423V22.6495Z" fill="white"/>
<path d="M28.0884 42.9198V48.1491L34.7439 42.1756C37.5762 43.7365 39.6703 45.4676 41.5033 48.0794C42.7412 46.354 44.4928 43.3519 44.8241 39.1094C44.8409 38.8892 44.8241 38.1338 44.6669 37.1331C44.0241 33.9442 41.0626 29.2864 35.1678 29.2864C34.5194 30.248 33.9299 30.6801 33.1467 31.0564C32.7088 31.2683 32.3972 31.3129 32.1221 31.3853C31.1481 31.6446 30.2863 32.4947 30.2554 33.7714V40.1853L28.0884 42.9198Z" fill="white"/>
<path d="M20.6909 18.3319L23.5401 27.2852V39.3827L25.7324 42.0838L25.7436 42.1005L25.7549 42.0838L27.9444 39.3827V27.2852L30.7935 18.3319C29.317 17.9723 27.3886 17.6852 25.7998 17.6852H25.6847C24.0959 17.6852 22.1674 17.9723 20.6909 18.3319Z" fill="#FDB913"/>
<path d="M30.2605 28.0851L35.7062 28.0879C40.7364 28.2357 44.8235 32.2078 45.0986 37.0357C44.9077 31.1876 43.1561 27.6503 40.495 24.4698L41.5589 1.61267L39.7062 4.28026L39.9392 7.52486C39.9252 8.58131 39.7259 9.48723 39.0326 10.4294L33.4718 17.9862L33.1181 19.1346L30.2605 28.0851Z" fill="white"/>
<path d="M21.2253 28.0851L15.7796 28.0879C10.7494 28.2357 6.6623 32.2078 6.38721 37.0357C6.57809 31.1876 8.32969 27.6503 10.9908 24.4698L9.92691 1.61267L11.7796 4.28026L11.5466 7.52486C11.5606 8.58131 11.7599 9.48723 12.4533 10.4294L18.014 17.9862L18.3677 19.1346L21.2253 28.0851Z" fill="white"/>
<path d="M23.3974 42.9198V48.1491L16.7419 42.1756C13.9096 43.7365 11.8155 45.4676 9.98249 48.0794C8.74457 46.354 6.99297 43.3519 6.66173 39.1094C6.64489 38.8892 6.66174 38.1338 6.81612 37.1331C7.45894 33.9442 10.4232 29.2864 16.3152 29.2864C16.9636 30.248 17.5531 30.6801 18.3363 31.0564C18.7742 31.2683 19.0858 31.3129 19.3609 31.3853C20.3349 31.6446 21.1967 32.4947 21.2276 33.7714V40.1853L23.3974 42.9198Z" fill="white"/>
</svg>
